<mxfile host="app.diagrams.net" modified="2023-05-30T07:27:43.278Z" agent="Mozilla/5.0 (Windows NT 10.0; Win64; x64) AppleWebKit/537.36 (KHTML, like Gecko) Chrome/113.0.0.0 Safari/537.36 Edg/113.0.1774.57" version="21.3.5" etag="g8Hf01Y2c3696lXIO2JQ" type="github">
  <diagram name="第 1 页" id="p64dLbCnW1FbUBkdOeP0">
    <mxGraphModel>
      <root>
        <mxCell id="0" />
        <mxCell id="1" parent="0" />
      </root>
    </mxGraphModel>
  </diagram>
</mxfile>
